<svg xmlns="http://www.w3.org/2000/svg" viewBox="0 0 1660 587" width="1660" height="587" fill="none" role="img"><title>tiked</title><g transform="translate(-138 -108) scale(1)"><path d="M 400.500 109.415 C 398.300 110.120, 390.200 114.733, 382.500 119.666 C 360.415 133.816, 316.453 162.045, 293.500 176.813 C 281.950 184.245, 256.075 200.859, 236 213.733 C 215.925 226.607, 195.722 239.696, 191.104 242.820 C 163.054 261.796, 147.317 287.238, 140.272 325 C 137.923 337.595, 137.549 503.475, 139.838 517.976 C 146.643 561.091, 174.931 592.208, 229 616.053 C 242.404 621.964, 257.710 627, 262.273 627 C 269.355 627, 273.674 619.597, 286.605 585.293 L 291.960 571.087 290.230 560.793 C 287.573 544.984, 287.632 270.920, 290.295 261.113 C 295.881 240.537, 312.984 224.966, 335 220.410 C 348.302 217.658, 377.049 218.745, 383.713 222.252 C 399.005 230.301, 403.986 239.993, 404.910 263.497 L 405.500 278.494 410.873 264.997 C 419.987 242.105, 431 205.899, 431 198.831 C 431 197.886, 432.562 193.239, 434.470 188.504 C 445.649 160.774, 442.218 135.064, 425.041 117.849 C 416.183 108.971, 409.286 106.601, 400.500 109.415 M 464.212 173.203 C 456.231 175.325, 455.060 188.363, 460.484 214.706 C 461.866 221.419, 464.134 234.469, 465.524 243.706 C 468.211 261.563, 474.500 298.788, 478.551 320.817 C 479.898 328.141, 481 334.507, 481 334.964 C 481 335.421, 486.512 335.953, 493.250 336.147 C 510.838 336.654, 519.316 341.299, 526.207 354.205 C 529.968 361.250, 529.736 407.864, 525.899 416.046 C 520.891 426.722, 510.760 434.412, 500.028 435.683 C 497.263 436.011, 495 436.674, 495 437.156 C 495 439.694, 506.662 490.532, 512.054 511.500 C 522.643 552.682, 533.437 586.022, 544.711 612.377 C 551.554 628.373, 556.262 629.332, 577.500 619.055 C 608.765 603.926, 633.641 576.606, 643.948 546.079 C 650.520 526.614, 650.401 528.482, 650.783 438.500 C 651.231 332.818, 650.650 327.993, 634.134 300.245 C 624.510 284.076, 620.620 280.830, 553.514 232.983 C 519.971 209.067, 488.134 185.981, 482.765 181.681 C 472.183 173.204, 469.248 171.863, 464.212 173.203" fill="#6B2FF7" fill-rule="evenodd"/><path d="M 428.094 200.258 C 423.802 207.827, 417.156 215.717, 407.600 224.590 L 398.237 233.283 401.091 239.391 C 404.425 246.528, 406.220 257.493, 405.400 265.702 C 404.201 277.692, 406.075 277.071, 411.382 263.722 C 424.338 231.133, 436.260 185.860, 428.094 200.258 M 463.397 230.002 C 463.705 231.376, 464.879 238.800, 466.006 246.500 C 470.334 276.084, 480.654 334.077, 481.780 335.140 C 482.176 335.514, 488.125 335.979, 495 336.174 C 512.789 336.677, 520.478 341.206, 526.881 354.954 C 532.056 366.068, 531.145 406.860, 525.470 418.058 C 520.707 427.459, 506.355 437, 496.979 437 C 494.561 437, 494.509 435.765, 497.508 449.632 C 512.594 519.408, 528.196 573.412, 544.208 611.278 C 546.483 616.656, 548.680 620.706, 549.092 620.278 C 549.999 619.335, 553.331 600.750, 555.417 585 C 558.718 560.080, 559.500 544.200, 559.478 502.500 C 559.456 458.876, 558.793 446.310, 554.467 407.500 C 553.118 395.400, 552.013 384.825, 552.012 384 C 552.006 379.823, 569.613 419.293, 578.776 444 C 594.276 485.791, 606.881 535.533, 611.466 573 C 612.374 580.425, 613.360 588.075, 613.657 590 L 614.196 593.500 619.620 587.500 C 634.103 571.479, 643.430 552.756, 647.977 530.579 C 652.442 508.801, 644.257 467.090, 629.524 436.542 C 617.085 410.749, 603.884 395.126, 567 362.547 C 513.390 315.193, 480.654 274.032, 466.871 236.649 C 463.778 228.261, 462.428 225.678, 463.397 230.002 M 281.500 316.739 C 274.471 322.385, 264.949 329.687, 241.540 347.379 C 188.281 387.633, 162.515 420.972, 147.946 468.482 C 142.515 486.194, 138.963 515.274, 141.058 524.884 C 144.740 541.779, 153.953 560.229, 164.354 571.536 L 168.921 576.500 168.979 570 C 169.383 524.693, 193.904 462.457, 239.505 391 C 245.647 381.375, 251.225 372.600, 251.901 371.500 C 253.327 369.180, 253.381 368.687, 249.570 393 C 239.692 456.030, 241.747 518.036, 255.635 576 C 260.428 596.007, 269.604 622.796, 271.137 621.263 C 272.517 619.883, 281.222 599.710, 286.522 585.608 L 291.368 572.716 289.983 563.608 C 288.885 556.392, 288.483 529.310, 288.049 433.209 L 287.500 311.919 281.500 316.739" fill="#370B8A" fill-rule="evenodd"/><path d="M 334 220.518 C 312.736 225.207, 295.758 240.977, 290.296 261.113 C 287.562 271.193, 287.585 543.472, 290.321 561.500 C 300.221 626.722, 339.607 671.468, 395.027 680.456 C 408.796 682.689, 473.124 682.678, 482.959 680.441 C 498.880 676.820, 512.523 663.987, 516.554 648.842 C 518.589 641.199, 518.525 613.129, 516.457 606.166 C 514.117 598.288, 507.845 591.175, 499.580 587.028 L 492.662 583.556 472.581 582.905 C 457.873 582.427, 451.028 581.792, 447 580.530 C 426.367 574.067, 410.398 557.810, 406.469 539.270 C 404.262 528.853, 404.338 442.391, 406.557 439.223 L 408.113 437 450.307 436.992 C 474.937 436.988, 495.192 436.548, 498.966 435.936 C 511.461 433.909, 520.732 427.062, 525.899 416.046 C 529.736 407.864, 529.968 361.250, 526.207 354.205 C 522.672 347.585, 517.377 342.333, 511.161 339.280 L 505.500 336.500 456.668 336 C 409.793 335.520, 407.780 335.422, 406.418 333.559 C 405.252 331.962, 405 324.742, 405 292.858 C 405 267.969, 404.598 252.202, 403.876 248.799 C 401.423 237.239, 394.895 228.391, 384.768 222.899 L 378.500 219.500 359.500 219.292 C 346.009 219.144, 338.615 219.500, 334 220.518" fill="#FFFFFF" fill-rule="evenodd" stroke="#6B2FF7" stroke-width="26" stroke-linejoin="round" paint-order="stroke fill"/></g><g transform="translate(-138 -108) scale(1)"><path d="M 739.655 224.459 C 734.584 226.267, 731.198 229.499, 728.614 235 C 726.507 239.485, 726.499 239.875, 726.187 352.500 C 725.859 470.497, 726.289 487.545, 729.977 503 C 740.889 548.723, 777.844 575.756, 832 577.633 C 850.881 578.287, 855.318 577.038, 859.198 569.975 C 862.404 564.141, 861.521 520.932, 858.099 516.133 C 854.685 511.346, 848.986 509.049, 840.460 509.022 C 815.843 508.945, 797.504 492.452, 794.939 468.080 C 793.912 458.326, 793.691 402.217, 794.648 394.250 L 795.279 389 821.889 388.978 C 861.912 388.945, 860.943 389.807, 860.978 354.218 C 861.002 330.081, 860.578 327.642, 855.550 323 L 852.842 320.500 824.202 320.205 C 803.227 319.989, 795.358 319.588, 794.797 318.705 C 794.375 318.042, 794.024 299.823, 794.015 278.218 C 793.997 231.482, 793.689 230.054, 782.500 224.890 C 777.350 222.513, 745.997 222.197, 739.655 224.459 M 1005.227 225.116 C 999.469 227.967, 995.294 233.281, 993.972 239.443 C 993.210 242.994, 992.978 292.209, 993.193 404.664 L 993.500 564.828 996.500 569.075 C 1001.748 576.504, 1004.840 577.450, 1025.100 577.829 C 1054.608 578.380, 1060.958 574.219, 1061.033 554.282 C 1061.112 533.100, 1061.641 531.784, 1077.094 514.352 C 1093.544 495.794, 1094.655 494.668, 1095.811 495.383 C 1096.429 495.765, 1105.813 507.648, 1116.664 521.789 C 1153.632 569.963, 1155.902 572.776, 1159.715 575.147 C 1165.198 578.556, 1210.130 579.363, 1217.322 576.182 C 1229.942 570.599, 1232.029 556.246, 1222.195 542.667 C 1214.017 531.375, 1190.659 500.641, 1187.488 497 C 1185.811 495.075, 1183.196 491.649, 1181.678 489.386 C 1180.159 487.123, 1176.322 482.173, 1173.151 478.386 C 1169.981 474.599, 1165.993 469.457, 1164.290 466.960 C 1162.587 464.463, 1159.527 460.426, 1157.491 457.989 C 1151.477 450.791, 1152.351 447.414, 1164.096 432.490 C 1177.073 415.999, 1183.235 408.316, 1192.046 397.642 C 1196.196 392.614, 1200.921 386.612, 1202.546 384.303 C 1204.171 381.995, 1208.875 376.169, 1213 371.356 C 1217.125 366.543, 1221.400 361.392, 1222.500 359.910 C 1223.600 358.428, 1227.026 353.905, 1230.112 349.858 C 1238.684 338.621, 1240.116 333.392, 1236.364 327.040 C 1232.669 320.783, 1231.410 320.563, 1200 320.668 C 1163.714 320.790, 1167.320 319.414, 1149.500 339.938 C 1144.550 345.639, 1136.900 354.357, 1132.500 359.310 C 1128.100 364.264, 1119.550 374.031, 1113.500 381.016 C 1107.450 388.001, 1099.350 397.291, 1095.500 401.660 C 1091.650 406.030, 1083.036 415.899, 1076.357 423.591 C 1069.679 431.283, 1063.491 438.177, 1062.607 438.911 C 1061.133 440.135, 1061 432.036, 1060.994 340.872 C 1060.991 274.615, 1060.639 240.241, 1059.940 237.723 C 1058.627 232.993, 1053.855 227.477, 1048.885 224.941 C 1042.959 221.918, 1011.433 222.045, 1005.227 225.116 M 1742.500 224.896 C 1740.300 225.914, 1737.286 228.042, 1735.803 229.624 C 1729.981 235.833, 1730.008 235.560, 1729.912 288.718 C 1729.864 315.548, 1729.527 339.734, 1729.162 342.464 L 1728.500 347.429 1726.801 344.827 C 1724.114 340.713, 1708.184 328.954, 1700.500 325.413 C 1665.457 309.262, 1620.407 314.335, 1584 338.532 C 1520.018 381.055, 1509.744 482.569, 1563.702 539.090 C 1588.401 564.962, 1618.195 577.477, 1658 578.701 C 1725.415 580.773, 1778.359 542.186, 1793.466 479.972 C 1797.729 462.417, 1798.140 449.150, 1797.809 340 L 1797.500 238.500 1795.347 234.500 C 1789.957 224.485, 1785.858 222.994, 1763.782 223.022 C 1749.098 223.041, 1745.899 223.322, 1742.500 224.896 M 1361.500 316.100 C 1270.249 323.592, 1211.762 411.049, 1239.917 497.906 C 1262.791 568.474, 1348.879 602.469, 1426.285 571.501 C 1460.056 557.991, 1496 523.016, 1496 503.667 C 1496 493.186, 1492.271 492.013, 1458.928 492.006 C 1427.782 491.999, 1427.461 492.078, 1415.768 502.654 C 1384.326 531.093, 1333.261 523.950, 1312.261 488.175 C 1309.692 483.798, 1305.848 471.130, 1306.671 469.750 C 1306.917 469.337, 1349.054 468.980, 1400.309 468.956 C 1498.941 468.910, 1498.046 468.950, 1503.196 464.345 C 1509.374 458.821, 1510.503 455.349, 1510.459 442 C 1510.263 382.614, 1469.304 333.127, 1409.003 319.424 C 1394.148 316.048, 1376.864 314.839, 1361.500 316.100 M 906.685 322.017 C 902.279 323.339, 897.192 327.723, 894.741 332.308 L 892.500 336.500 892.500 450.500 C 892.500 576.988, 891.996 567.453, 898.995 573.342 C 903.710 577.310, 907.983 577.988, 928.282 577.994 C 951.551 578.001, 956.390 576.344, 961.839 566.500 C 963.879 562.816, 964.964 343.293, 962.979 335.922 C 961.619 330.870, 956.631 325.192, 951.509 322.865 C 947.135 320.878, 912.652 320.226, 906.685 322.017 M 1364.500 378.626 C 1363.400 378.842, 1360.025 379.511, 1357 380.110 C 1345.012 382.488, 1326.947 393.240, 1319.651 402.340 C 1315.923 406.990, 1310 417.136, 1310 418.872 C 1310 419.698, 1327.149 420, 1374 420 C 1444.950 420, 1439.521 420.575, 1436.513 413.378 C 1427.273 391.261, 1390.486 373.509, 1364.500 378.626 M 1655 381.659 C 1635.423 384.686, 1618.065 396.597, 1607.718 414.101 C 1596.117 433.727, 1596.146 461.925, 1607.787 481.376 C 1637.521 531.061, 1710.862 519.298, 1725.584 462.483 C 1737.093 418.066, 1699.314 374.807, 1655 381.659" fill="#FFFFFF" fill-rule="evenodd"/><path d="M 899.873 212.684 C 894.790 215.838, 894 218.605, 894 233.246 L 894 246.683 897.946 247.866 C 908.481 251.022, 908.481 262.978, 897.946 266.134 L 894 267.317 894 280.754 C 894 303.222, 893.650 303, 929 303 C 964.350 303, 964 303.222, 964 280.754 L 964 267.317 960.054 266.134 C 949.519 262.978, 949.519 251.022, 960.054 247.866 L 964 246.683 964 233.246 C 964 210.756, 964.371 210.991, 928.846 211.027 C 906.262 211.049, 902.125 211.286, 899.873 212.684" fill="#854DFC" fill-rule="evenodd"/></g></svg>
